<svg xmlns="http://www.w3.org/2000/svg" xmlns:xlink="http://www.w3.org/1999/xlink" version="1.1" x="0px" y="0px" viewBox="0 0 1024 1280" style="enable-background:new 0 0 1024 1024;" xml:space="preserve"><g><g><g><path d="M475.1,298.4c0,7.4-0.5,14.8-1.5,22.2c0.5-3.5,1-7.1,1.4-10.6c-2,14.3-5.8,28.2-11.3,41.5     c1.3-3.2,2.7-6.4,4-9.6c-5.5,13-12.6,25.1-21.1,36.3c2.1-2.7,4.2-5.4,6.3-8.1c-8.8,11.4-19,21.6-30.4,30.4     c2.7-2.1,5.4-4.2,8.1-6.3c-11.2,8.5-23.4,15.6-36.3,21.1c3.2-1.3,6.4-2.7,9.6-4c-13.3,5.5-27.2,9.3-41.5,11.3     c3.5-0.5,7.1-1,10.6-1.4c-14.8,1.9-29.6,1.9-44.4,0c3.5,0.5,7.1,1,10.6,1.4c-14.3-2-28.2-5.8-41.5-11.3c3.2,1.3,6.4,2.7,9.6,4     c-13-5.5-25.1-12.6-36.3-21.1c2.7,2.1,5.4,4.2,8.1,6.3c-11.4-8.8-21.6-19-30.4-30.4c2.1,2.7,4.2,5.4,6.3,8.1     c-8.5-11.2-15.6-23.4-21.1-36.3c1.3,3.2,2.7,6.4,4,9.6c-5.5-13.3-9.3-27.2-11.3-41.5c0.5,3.5,1,7.1,1.4,10.6     c-1.9-14.8-1.9-29.6,0-44.4c-0.5,3.5-1,7.1-1.4,10.6c2-14.3,5.8-28.2,11.3-41.5c-1.3,3.2-2.7,6.4-4,9.6     c5.5-13,12.6-25.1,21.1-36.3c-2.1,2.7-4.2,5.4-6.3,8.1c8.8-11.4,19-21.6,30.4-30.4c-2.7,2.1-5.4,4.2-8.1,6.3     c11.2-8.5,23.4-15.6,36.3-21.1c-3.2,1.3-6.4,2.7-9.6,4c13.3-5.5,27.2-9.3,41.5-11.3c-3.5,0.5-7.1,1-10.6,1.4     c14.8-1.9,29.6-1.9,44.4,0c-3.5-0.5-7.1-1-10.6-1.4c14.3,2,28.2,5.8,41.5,11.3c-3.2-1.3-6.4-2.7-9.6-4     c13,5.5,25.1,12.6,36.3,21.1c-2.7-2.1-5.4-4.2-8.1-6.3c11.4,8.8,21.6,19,30.4,30.4c-2.1-2.7-4.2-5.4-6.3-8.1     c8.5,11.2,15.6,23.4,21.1,36.3c-1.3-3.2-2.7-6.4-4-9.6c5.5,13.3,9.3,27.2,11.3,41.5c-0.5-3.5-1-7.1-1.4-10.6     C474.6,283.5,475.1,290.9,475.1,298.4c0.1,20.9,18.3,41,40,40c21.6-1,40.1-17.6,40-40c-0.2-40.8-12.3-82.7-36.3-116     c-13.8-19.2-29.1-34.8-47.9-49c-16-12.1-33.9-20.9-52.7-27.8c-77.1-28.4-170.9-3.1-223,60.4c-7.1,8.7-14,17.7-19.9,27.4     c-6.1,10.2-10.9,21-15.3,32c-7.8,19.1-11.5,39.3-13.2,59.8c-3.3,40.7,7.4,83.4,28.5,118.3c20.5,33.9,51.5,63.2,87.8,79.5     c10.4,4.7,21.1,9.1,32.1,12.2c11.8,3.3,23.8,5,36,6.5c20.8,2.5,41.9,0.6,62.4-3.5c39-7.8,76.4-29,103.9-57.6     c27.8-28.9,48.2-66.8,54.3-106.7c1.8-11.8,3.3-23.6,3.3-35.5c0.1-20.9-18.5-41-40-40C493.4,259.3,475.2,275.9,475.1,298.4z"/></g></g><g><g><path d="M820.4,363.9c0,5.1-0.4,10.2-1,15.2c0.5-3.5,1-7.1,1.4-10.6c-1.4,9.4-3.8,18.5-7.4,27.2     c1.3-3.2,2.7-6.4,4-9.6c-3.8,8.9-8.6,17.3-14.5,25c2.1-2.7,4.2-5.4,6.3-8.1c-5.9,7.6-12.7,14.4-20.3,20.3     c2.7-2.1,5.4-4.2,8.1-6.3c-7.7,5.9-16.1,10.7-25,14.5c3.2-1.3,6.4-2.7,9.6-4c-8.8,3.6-17.9,6-27.2,7.4c3.5-0.5,7.1-1,10.6-1.4     c-10.1,1.3-20.3,1.3-30.5,0c3.5,0.5,7.1,1,10.6,1.4c-9.4-1.4-18.5-3.8-27.2-7.4c3.2,1.3,6.4,2.7,9.6,4c-8.9-3.8-17.3-8.6-25-14.5     c2.7,2.1,5.4,4.2,8.1,6.3c-7.6-5.9-14.4-12.7-20.3-20.3c2.1,2.7,4.2,5.4,6.3,8.1c-5.9-7.7-10.7-16.1-14.5-25     c1.3,3.2,2.7,6.4,4,9.6c-3.6-8.8-6-17.9-7.4-27.2c0.5,3.5,1,7.1,1.4,10.6c-1.3-10.1-1.3-20.3,0-30.5c-0.5,3.5-1,7.1-1.4,10.6     c1.4-9.4,3.8-18.5,7.4-27.2c-1.3,3.2-2.7,6.4-4,9.6c3.8-8.9,8.6-17.3,14.5-25c-2.1,2.7-4.2,5.4-6.3,8.1     c5.9-7.6,12.7-14.4,20.3-20.3c-2.7,2.1-5.4,4.2-8.1,6.3c7.7-5.9,16.1-10.7,25-14.5c-3.2,1.3-6.4,2.7-9.6,4     c8.8-3.6,17.9-6,27.2-7.4c-3.5,0.5-7.1,1-10.6,1.4c10.1-1.3,20.3-1.3,30.5,0c-3.5-0.5-7.1-1-10.6-1.4c9.4,1.4,18.5,3.8,27.2,7.4     c-3.2-1.3-6.4-2.7-9.6-4c8.9,3.8,17.3,8.6,25,14.5c-2.7-2.1-5.4-4.2-8.1-6.3c7.6,5.9,14.4,12.7,20.3,20.3     c-2.1-2.7-4.2-5.4-6.3-8.1c5.9,7.7,10.7,16.1,14.5,25c-1.3-3.2-2.7-6.4-4-9.6c3.6,8.8,6,17.9,7.4,27.2c-0.5-3.5-1-7.1-1.4-10.6     C820,353.7,820.4,358.8,820.4,363.9c0.1,10.3,4.4,21,11.7,28.3c6.9,6.9,18.3,12.2,28.3,11.7c21.6-1,40.1-17.6,40-40     c-0.2-29.5-8.8-60.3-26-84.5c-9.6-13.4-19.9-24.6-32.9-34.7c-13.1-10.1-26.7-17.3-42.3-23.1c-28.1-10.5-61.1-10.9-89.9-2.9     c-27.9,7.8-55.1,24.3-73.5,46.9c-5.5,6.7-10.9,13.5-15.3,20.9c-4.7,7.7-8.1,16-11.5,24.3c-5.7,14-8.3,28.9-9.5,44     c-2.4,29.6,5.7,61.1,21,86.4c14.8,24.5,37.4,46.2,63.6,58.1c8.2,3.7,16.5,7.3,25.2,9.7c8.7,2.4,17.7,3.6,26.6,4.6     c15.3,1.8,30.8,0.3,45.8-2.6c28.4-5.5,55.9-21.3,76-42.1c20.3-21,35.6-48.8,40.1-77.9c1.4-9,2.6-18.1,2.7-27.2     c0.1-20.9-18.5-41-40-40C838.6,324.9,820.6,341.5,820.4,363.9z"/></g></g><g><g><path d="M612.5,776.5c0,12.7,0,25.4,0,38c0,13,1.1,26.6-0.4,39.6c0.5-3.5,1-7.1,1.4-10.6c-0.5,3.6-1.4,7-2.8,10.3     c1.3-3.2,2.7-6.4,4-9.6c-1.4,3.2-3.1,6.2-5.2,9.1c2.1-2.7,4.2-5.4,6.3-8.1c-2.4,3.1-5.1,5.8-8.2,8.2c2.7-2.1,5.4-4.2,8.1-6.3     c-2.8,2.1-5.8,3.8-9.1,5.2c3.2-1.3,6.4-2.7,9.6-4c-3.4,1.3-6.7,2.2-10.3,2.8c3.5-0.5,7.1-1,10.6-1.4c-6,0.7-12.2,0.4-18.3,0.4     c-12.5,0-25,0-37.4,0c-41.7,0-83.3,0-125,0c-50.6,0-101.3,0-151.9,0c-43.6,0-87.3,0-130.9,0c-20.7,0-41.3,0.2-62,0     c-2,0-4.1-0.1-6.1-0.4c3.5,0.5,7.1,1,10.6,1.4c-3.6-0.5-7-1.4-10.3-2.8c3.2,1.3,6.4,2.7,9.6,4c-3.2-1.4-6.2-3.1-9.1-5.2     c2.7,2.1,5.4,4.2,8.1,6.3c-3.1-2.4-5.8-5.1-8.2-8.2c2.1,2.7,4.2,5.4,6.3,8.1c-2.1-2.8-3.8-5.8-5.2-9.1c1.3,3.2,2.7,6.4,4,9.6     c-1.3-3.4-2.2-6.8-2.8-10.3c0.5,3.5,1,7.1,1.4,10.6C88,842.7,89,830.8,89,819.4c0-13.7,0-27.4,0-41.1c0-9.5,0.5-18.9,1.7-28.3     c-0.5,3.5-1,7.1-1.4,10.6c2.4-17.9,7.1-35.3,14.1-51.9c-1.3,3.2-2.7,6.4-4,9.6c6.7-15.8,15.4-30.6,25.8-44.3     c-2.1,2.7-4.2,5.4-6.3,8.1c10.7-13.8,23.1-26.2,36.9-36.9c-2.7,2.1-5.4,4.2-8.1,6.3c13.6-10.4,28.5-19.1,44.3-25.8     c-3.2,1.3-6.4,2.7-9.6,4c16.6-7,34-11.7,51.9-14.1c-3.5,0.5-7.1,1-10.6,1.4c13.2-1.7,26.3-1.7,39.5-1.7c16.6,0,33.2,0,49.9,0     c39.6,0,79.2,0,118.8,0c15.6,0,31.2-0.2,46.8,1.8c-3.5-0.5-7.1-1-10.6-1.4c17.6,2.5,34.7,7.2,51.1,14c-3.2-1.3-6.4-2.7-9.6-4     c15.9,6.8,30.8,15.6,44.6,26.1c-2.7-2.1-5.4-4.2-8.1-6.3c13.7,10.7,26,23,36.7,36.8c-2.1-2.7-4.2-5.4-6.3-8.1     c10.3,13.5,18.9,28.2,25.6,43.9c-1.3-3.2-2.7-6.4-4-9.6c6.9,16.5,11.7,33.8,14.1,51.6c-0.5-3.5-1-7.1-1.4-10.6     C611.9,758.5,612.5,767.5,612.5,776.5c0.1,20.9,18.3,41,40,40c21.6-1,40.1-17.6,40-40c-0.1-26.7-4.3-54.1-13.4-79.2     c-4.8-13.4-10.6-26.6-17.5-39c-6.9-12.4-15.3-23.7-24.1-34.8c-33-41.6-82.9-72-134.9-82.6c-25.3-5.2-50.3-5.5-75.9-5.5     c-27.2,0-54.3,0-81.5,0c-25.8,0-51.7,0-77.5,0c-25.6,0-51,1-76,7.1C101.8,564.4,27.5,642.1,12.9,734C8.2,763.9,9,793.6,9,823.8     c0,9.6-0.6,19.4,0.2,29c1.6,19.8,8.7,36.6,21.9,51.6c10,11.3,25.7,20.5,40.6,23.5c12.1,2.4,23.4,2.2,35.6,2.2     c16.6,0,33.3,0,49.9,0c53.1,0,106.1,0,159.2,0c58.3,0,116.6,0,174.9,0c36.8,0,73.7,0,110.5,0c2.9,0,5.8,0,8.7,0     c22-0.1,44.6-8.8,59.6-25.3c13.5-14.8,20.7-32.1,22.3-52c0.3-3.4,0.2-6.8,0.2-10.3c0-13.4,0-26.8,0-40.2c0-8.6,0-17.2,0-25.8     c0-20.9-18.4-41-40-40C630.8,737.4,612.5,754,612.5,776.5z"/></g></g><g><g><path d="M935,723.9c0,11.6,0,23.2,0,34.8c0,11.7,0.8,23.8-0.2,35.5c0.5-3.5,1-7.1,1.4-10.6     c-0.3,2.2-0.8,4.3-1.6,6.4c1.3-3.2,2.7-6.4,4-9.6c-0.9,2-1.9,3.8-3.2,5.6c2.1-2.7,4.2-5.4,6.3-8.1c-1.4,1.7-2.8,3.2-4.5,4.5     c2.7-2.1,5.4-4.2,8.1-6.3c-1.8,1.3-3.6,2.3-5.6,3.2c3.2-1.3,6.4-2.7,9.6-4c-2.1,0.8-4.2,1.3-6.4,1.6c3.5-0.5,7.1-1,10.6-1.4     c-10.4,0.9-21.1,0.2-31.5,0.2c-23.8,0-47.5,0-71.3,0c-53.7,0-107.3,0-161,0c-12.4,0-24.8,0-37.3,0c13.3,13.3,26.7,26.7,40,40     c0-19.9,1-40.1-1-59.9c-4.3-42.3-17.9-83.8-43.2-118.4c-7.6-10.3-15.6-20.5-24.5-29.7c-9.4-9.6-19.7-17.8-30.4-26     c2.7,20.9,5.4,41.9,8.1,62.8c2.4-2.1,4.8-4.1,7.3-6c-2.7,2.1-5.4,4.2-8.1,6.3c9.7-7.4,20.2-13.5,31.4-18.3     c-3.2,1.3-6.4,2.7-9.6,4c11.5-4.8,23.5-8.1,35.8-9.9c-3.5,0.5-7.1,1-10.6,1.4c10.7-1.4,21.3-1.4,32.1-1.4c13.9,0,27.8,0,41.7,0     c31.9,0,63.7,0,95.6,0c11.5,0,22.9-0.2,34.4,1.3c-3.5-0.5-7.1-1-10.6-1.4c12.5,1.8,24.6,5.1,36.3,9.9c-3.2-1.3-6.4-2.7-9.6-4     c11.3,4.9,22,11.1,31.7,18.6c-2.7-2.1-5.4-4.2-8.1-6.3c9.7,7.5,18.3,16.2,25.8,25.8c-2.1-2.7-4.2-5.4-6.3-8.1     c7.5,9.8,13.7,20.4,18.6,31.7c-1.3-3.2-2.7-6.4-4-9.6c4.9,11.6,8.2,23.8,9.9,36.3c-0.5-3.5-1-7.1-1.4-10.6     C934.6,710.9,935,717.4,935,723.9c0,10.3,4.4,21,11.7,28.3c6.9,6.9,18.3,12.2,28.3,11.7c21.6-1,40.1-17.6,40-40     c-0.2-51.7-22.6-103.8-62.3-137.5c-20.6-17.5-43.6-30.7-69.6-38.4c-17.2-5.1-35.6-7.3-53.5-7.3c-50.2,0-100.4,0-150.5,0     c-14.2,0-28,0.7-42.2,2.8c-34.5,5.1-66,21.8-92.1,44.5c-9.4,8.2-12.6,21.8-11,33.6c0.2,5.3,1.8,10.3,4.7,14.9     c3.6,6,8.3,10.8,14.4,14.4c0.4,0.3,0.8,0.6,1.2,0.9c-2.7-2.1-5.4-4.2-8.1-6.3c13.7,10.7,26,23,36.7,36.8     c-2.1-2.7-4.2-5.4-6.3-8.1c10.3,13.5,18.9,28.2,25.6,43.9c-1.3-3.2-2.7-6.4-4-9.6c6.9,16.5,11.7,33.8,14.1,51.6     c-0.5-3.5-1-7.1-1.4-10.6c2.8,21.8,1.8,44.1,1.8,66.1c0,21.6,18.3,40,40,40c16,0,32.1,0,48.1,0c35.2,0,70.4,0,105.5,0     c34.3,0,68.5,0,102.8,0c10.7,0,21.4,0,32.1,0c11.8,0,23-0.5,34.3-5.2c24.1-10.2,39-32.9,39.7-59.1c0.1-4.9,0-9.9,0-14.9     c0-16.4,0-32.8,0-49.2c0-1.2,0-2.3,0-3.5c0-20.9-18.4-41-40-40C953.3,684.9,935,701.5,935,723.9z"/></g></g></g><text x="0" y="1039" fill="#000000" font-size="5px" font-weight="bold" font-family="'Helvetica Neue', Helvetica, Arial-Unicode, Arial, Sans-serif">Created by shashank singh</text><text x="0" y="1044" fill="#000000" font-size="5px" font-weight="bold" font-family="'Helvetica Neue', Helvetica, Arial-Unicode, Arial, Sans-serif">from the Noun Project</text></svg>