<?xml version="1.0" encoding="utf-8"?>
<!-- Svg Vector Icons : http://www.onlinewebfonts.com/icon -->
<!DOCTYPE svg PUBLIC "-//W3C//DTD SVG 1.1//EN" "http://www.w3.org/Graphics/SVG/1.1/DTD/svg11.dtd">
<svg version="1.1" xmlns="http://www.w3.org/2000/svg" xmlns:xlink="http://www.w3.org/1999/xlink" x="0px" y="0px" viewBox="0 0 256 256" enable-background="new 0 0 256 256" xml:space="preserve">
<metadata> Svg Vector Icons : http://www.onlinewebfonts.com/icon </metadata>
<g><g><path fill="#000000" d="M57.2,80.8c8.7,0,16.1-3.1,22.3-9.2c6.1-6.1,9.2-13.6,9.2-22.3c0-8.7-3.1-16.1-9.2-22.3c-6.1-6.1-13.6-9.2-22.3-9.2c-8.7,0-16.1,3.1-22.3,9.2c-6.1,6.1-9.2,13.6-9.2,22.3c0,8.7,3.1,16.1,9.2,22.3C41.1,77.7,48.5,80.8,57.2,80.8L57.2,80.8z"/><path fill="#000000" d="M94.6,129.9c9.2,9.2,20.3,13.8,33.4,13.8c13,0,24.2-4.6,33.4-13.8c9.2-9.2,13.8-20.3,13.8-33.4c0-13-4.6-24.2-13.8-33.4c-9.2-9.2-20.3-13.8-33.4-13.8c-13,0-24.2,4.6-33.4,13.8c-9.2,9.2-13.8,20.3-13.8,33.4C80.8,109.6,85.4,120.7,94.6,129.9L94.6,129.9z"/><path fill="#000000" d="M198.8,80.8c8.7,0,16.1-3.1,22.3-9.2c6.1-6.1,9.2-13.6,9.2-22.3c0-8.7-3.1-16.1-9.2-22.3c-6.1-6.1-13.6-9.2-22.3-9.2s-16.1,3.1-22.3,9.2s-9.2,13.6-9.2,22.3c0,8.7,3.1,16.1,9.2,22.3C182.7,77.7,190.1,80.8,198.8,80.8L198.8,80.8z"/><path fill="#000000" d="M230.8,80.8c-0.5,0-2.3,0.9-5.3,2.6s-7.1,3.5-12,5.2c-4.9,1.8-9.8,2.6-14.6,2.6c-5.5,0-10.9-0.9-16.4-2.8c0.4,3,0.6,5.7,0.6,8.1c0,11.4-3.3,21.9-10,31.5c13.3,0.4,24.1,5.7,32.6,15.7h16.5c6.7,0,12.4-1.7,17-5c4.6-3.3,6.9-8.2,6.9-14.6C246,95.3,240.9,80.8,230.8,80.8L230.8,80.8z"/><path fill="#000000" d="M212.4,180.2c-0.9-4.8-2-9.2-3.3-13.3s-3.1-8.1-5.3-12c-2.2-3.9-4.7-7.2-7.6-9.9c-2.9-2.7-6.4-4.9-10.5-6.6c-4.1-1.6-8.7-2.5-13.7-2.5c-0.8,0-2.6,0.9-5.3,2.6c-2.7,1.8-5.7,3.7-9,5.9c-3.3,2.2-7.7,4.1-13.2,5.9s-11,2.6-16.6,2.6c-5.6,0-11.1-0.9-16.6-2.6s-9.9-3.7-13.1-5.9c-3.3-2.2-6.3-4.1-9-5.9c-2.7-1.8-4.5-2.6-5.3-2.6c-5,0-9.6,0.8-13.7,2.5c-4.1,1.6-7.6,3.8-10.5,6.6c-2.9,2.7-5.4,6.1-7.6,9.9c-2.2,3.9-4,7.9-5.3,12c-1.3,4.1-2.4,8.5-3.3,13.3c-0.9,4.8-1.4,9.2-1.7,13.4c-0.3,4.1-0.4,8.4-0.4,12.7c0,9.8,3,17.6,9,23.3c6,5.7,13.9,8.5,23.8,8.5h107.4c9.9,0,17.9-2.8,23.8-8.5c6-5.7,9-13.5,9-23.3c0-4.3-0.1-8.6-0.4-12.7C213.8,189.4,213.3,185,212.4,180.2L212.4,180.2z"/><path fill="#000000" d="M82.9,128c-6.6-9.6-9.9-20.1-9.9-31.5c0-2.4,0.2-5.1,0.6-8.1c-5.4,1.9-10.9,2.8-16.4,2.8c-4.8,0-9.7-0.9-14.6-2.6s-8.9-3.5-12-5.2c-3.1-1.7-4.9-2.6-5.3-2.6C15.1,80.8,10,95.3,10,124.2c0,6.4,2.3,11.2,6.9,14.6c4.6,3.3,10.2,5,17,5h16.5C58.8,133.7,69.6,128.4,82.9,128L82.9,128z"/></g></g>
</svg>