<?xml version="1.0" encoding="utf-8"?><svg version="1.1" id="Layer_1" xmlns="http://www.w3.org/2000/svg" xmlns:xlink="http://www.w3.org/1999/xlink" x="0px" y="0px" viewBox="0 0 122.88 74.62" style="enable-background:new 0 0 122.88 74.62" xml:space="preserve"><style type="text/css"><![CDATA[
	.st0{fill-rule:evenodd;clip-rule:evenodd;}
]]></style><g><path class="st0" d="M2.54,69.55h12.59c-0.93-0.24-1.63-1.1-1.63-2.1v-41.2c-0.38-0.31-0.75-0.65-1.1-1.02 c-2.09-2.26-3.38-5.38-3.38-8.8v-4.9c0-0.25,0.05-0.49,0.16-0.71l9.07-10.09C18.49,0.26,18.94,0,19.4,0h83.36 c0.53,0,0.97,0.33,1.19,0.8l9.72,9.97c0.45,0.76,0.2,4.83,0.2,5.65c0,3.42-1.3,6.54-3.38,8.8c-0.52,0.55-1.07,1.05-1.67,1.49v40.73 c0,1.01-0.69,1.86-1.63,2.1h13.16c1.4,0,2.54,1.14,2.54,2.54l0,0c0,1.4-1.14,2.54-2.54,2.54H2.54c-1.4,0-2.54-1.14-2.54-2.54l0,0 C0,70.69,1.14,69.55,2.54,69.55L2.54,69.55L2.54,69.55z M45.27,34.01c-0.62,0-1.14-0.53-1.14-1.17c0-0.62,0.53-1.14,1.14-1.14h1.58 c0.03,0,0.09,0,0.12,0c1.06,0.03,2,0.23,2.78,0.73c0.88,0.56,1.52,1.41,1.88,2.67c0,0.03,0,0.06,0.03,0.09l0.29,1.18h25.37h0.28 c0.65,0,1.14,0.53,1.14,1.14c0,0.12-0.03,0.23-0.06,0.35L75.7,49.9c-0.12,0.53-0.59,0.88-1.11,0.88l0,0H55.82 c0.41,1.52,0.82,2.34,1.38,2.73c0.67,0.44,1.85,0.47,3.81,0.44h0.03l0,0h13.25c0.65,0,1.14,0.53,1.14,1.14 c0,0.64-0.53,1.14-1.14,1.14H61.04l0,0c-2.43,0.03-3.93-0.03-5.13-0.82c-1.23-0.82-1.88-2.23-2.52-4.78l0,0l-3.93-14.87 c0-0.03,0-0.03-0.03-0.06c-0.18-0.65-0.47-1.08-0.88-1.32c-0.41-0.26-0.97-0.38-1.61-0.38c-0.03,0-0.06,0-0.09,0L45.27,34.01 L45.27,34.01L45.27,34.01L45.27,34.01z M67.9,44.31c0-0.36,0.36-0.65,0.8-0.65s0.8,0.29,0.8,0.65v1.37c0,0.36-0.36,0.65-0.8,0.65 s-0.8-0.29-0.8-0.65V44.31L67.9,44.31L67.9,44.31z M63.13,44.31c0-0.36,0.36-0.65,0.8-0.65s0.8,0.29,0.8,0.65v1.37 c0,0.36-0.36,0.65-0.8,0.65s-0.8-0.29-0.8-0.65V44.31L63.13,44.31L63.13,44.31z M58.35,44.31c0-0.36,0.36-0.65,0.8-0.65 s0.8,0.29,0.8,0.65v1.37c0,0.36-0.36,0.65-0.8,0.65s-0.8-0.29-0.8-0.65V44.31L58.35,44.31L58.35,44.31z M52.6,38.64L52.6,38.64 l2.61,9.82h18.5l2.43-9.82C68.29,38.64,60.45,38.64,52.6,38.64L52.6,38.64z M70.87,57.59c1.55,0,2.81,1.26,2.81,2.81 c0,1.55-1.26,2.81-2.81,2.81c-1.55,0-2.82-1.26-2.82-2.81C68.05,58.84,69.31,57.59,70.87,57.59L70.87,57.59L70.87,57.59 L70.87,57.59z M58.52,57.59c1.55,0,2.81,1.26,2.81,2.81c0,1.55-1.26,2.81-2.81,2.81c-1.56,0-2.81-1.26-2.81-2.81 C55.71,58.84,56.97,57.59,58.52,57.59L58.52,57.59L58.52,57.59L58.52,57.59z M17.21,28.22v38.61h88.19V28.36 c-0.86,0.24-1.73,0.37-2.59,0.4c-1.79,0.06-3.58-0.32-5.36-1.04c-1.22-0.62-2.33-1.47-3.27-2.48c-0.83-0.89-1.52-1.92-2.08-3.04 c-0.54,1.13-1.25,2.15-2.08,3.04c-2.09,2.26-4.98,3.66-8.15,3.66c-3.17,0-6.05-1.4-8.15-3.66c-0.83-0.89-1.52-1.92-2.07-3.04 c-0.54,1.13-1.25,2.15-2.08,3.04c-2.09,2.26-4.98,3.66-8.15,3.66c-3.17,0-6.06-1.4-8.15-3.66c-0.83-0.89-1.52-1.92-2.07-3.04 c-0.54,1.13-1.25,2.15-2.08,3.04c-2.09,2.26-4.98,3.66-8.15,3.66c-3.17,0-6.06-1.4-8.15-3.66c-0.83-0.89-1.52-1.92-2.08-3.04 c-0.54,1.13-1.25,2.15-2.07,3.04c-1.38,1.49-3.09,2.61-5.01,3.19c-2.38,0.52-4.49,0.4-6.38-0.18L17.21,28.22L17.21,28.22z M14.74,10.17c5.35,0,10.31,0,15,0l3.16-7.33H20.16L14.74,10.17L14.74,10.17z M71.52,2.84l1.32,7.33h17.55L86.8,2.84H71.52 L71.52,2.84L71.52,2.84z M70.2,10.17l-1.31-7.33H53.94l-1.29,7.33H70.2L70.2,10.17L70.2,10.17z M50.02,10.17l1.29-7.33H35.59 l-2.92,7.37L50.02,10.17L50.02,10.17z M89.51,2.84l3.59,7.33h14.37l-5.46-7.33H89.51L89.51,2.84L89.51,2.84z M93.42,13.01v3.42 c0,2.64,1,5.05,2.62,6.79c1.61,1.74,3.84,2.83,6.29,2.83s4.68-1.08,6.29-2.83c1.61-1.74,2.62-4.15,2.62-6.79v-3.42H93.42 L93.42,13.01L93.42,13.01z M72.97,13.01v3.42c0,2.64,1,5.05,2.62,6.79c1.61,1.74,3.84,2.83,6.29,2.83c2.45,0,4.68-1.08,6.29-2.83 c1.61-1.74,2.62-4.15,2.62-6.79v-3.42H72.97L72.97,13.01L72.97,13.01z M52.53,13.01v3.42c0,2.64,1,5.05,2.62,6.79 c1.61,1.74,3.84,2.83,6.29,2.83s4.68-1.08,6.29-2.83c1.61-1.74,2.62-4.15,2.62-6.79v-3.42H52.53L52.53,13.01L52.53,13.01z M32.09,13.01v3.42c0,2.64,1,5.05,2.62,6.79c1.61,1.74,3.84,2.83,6.29,2.83s4.68-1.08,6.29-2.83c1.61-1.74,2.62-4.15,2.62-6.79 v-3.42H32.09L32.09,13.01L32.09,13.01z M29.46,13.01H11.65v3.42c0,2.64,1,5.05,2.62,6.79c1.61,1.74,3.84,2.83,6.29,2.83 c2.45,0,4.68-1.08,6.29-2.83c1.61-1.74,2.62-4.15,2.62-6.79V13.01L29.46,13.01L29.46,13.01z M57.87,70.5h7.14 c0.67,0,1.22,0.55,1.22,1.22l0,0c0,0.67-0.55,1.22-1.22,1.22h-7.14c-0.67,0-1.22-0.55-1.22-1.22l0,0 C56.65,71.04,57.2,70.5,57.87,70.5L57.87,70.5L57.87,70.5z"/></g></svg>